<svg width="29" height="27" viewBox="0 0 29 27" fill="none" xmlns="http://www.w3.org/2000/svg">
<path d="M14.4706 0.09375C11.7857 0.09375 9.16107 0.880013 6.92867 2.35311C4.69626 3.82621 2.95632 5.91998 1.92885 8.36965C0.90139 10.8193 0.632558 13.5149 1.15635 16.1154C1.68015 18.716 2.97305 21.1048 4.87155 22.9797C6.77006 24.8545 9.1889 26.1314 11.8222 26.6487C14.4555 27.1659 17.185 26.9004 19.6655 25.8858C22.146 24.8711 24.2662 23.1528 25.7578 20.9481C27.2494 18.7435 28.0456 16.1515 28.0456 13.5C28.0415 9.9457 26.6099 6.53816 24.065 4.02489C21.5201 1.51162 18.0696 0.097858 14.4706 0.09375ZM19.2267 14.358L12.9613 18.483C12.8041 18.5867 12.6213 18.6463 12.4325 18.6554C12.2436 18.6645 12.0558 18.6228 11.8891 18.5347C11.7224 18.4466 11.5831 18.3154 11.486 18.1552C11.3889 17.995 11.3377 17.8117 11.3379 17.625V9.375C11.3377 9.18828 11.3889 9.00502 11.486 8.8448C11.5831 8.68458 11.7224 8.55341 11.8891 8.4653C12.0558 8.3772 12.2436 8.33547 12.4325 8.34457C12.6213 8.35367 12.8041 8.41326 12.9613 8.51697L19.2267 12.642C19.3698 12.7361 19.4871 12.8637 19.5682 13.0134C19.6493 13.1631 19.6917 13.3302 19.6917 13.5C19.6917 13.6698 19.6493 13.8369 19.5682 13.9866C19.4871 14.1363 19.3698 14.2639 19.2267 14.358Z" fill="white"/>
</svg>
