<svg width="23" height="36" viewBox="0 0 23 36" fill="none" xmlns="http://www.w3.org/2000/svg">
<path d="M0.679794 18.2829C0.932271 17.815 1.41236 17.5232 1.93453 17.5232H10.0654V1.46859C10.0654 0.657928 10.7081 0 11.4999 0C12.2918 0 12.9345 0.657928 12.9345 1.46859V17.5232H21.0654C21.5895 17.5232 22.0695 17.815 22.3201 18.2829C22.5745 18.7509 22.5573 19.3227 22.2799 19.775L12.7145 35.3147C12.4506 35.7415 11.9934 36 11.4999 36C11.0065 36 10.5493 35.7415 10.2854 35.3147L0.719961 19.775C0.574595 19.5361 0.5 19.264 0.5 18.9918C0.5 18.749 0.561206 18.5042 0.679794 18.2829Z" fill="white"/>
</svg>
