<svg width="28" height="28" viewBox="0 0 28 28" fill="none" xmlns="http://www.w3.org/2000/svg">
<path fill-rule="evenodd" clip-rule="evenodd" d="M3.81255 4.74775C3.81522 4.74775 3.74855 4.81709 3.66455 4.89975C3.34188 5.21309 2.67388 5.86509 2.66715 7.22909C2.65655 9.13709 3.91122 12.6798 9.95255 18.7198C15.9659 24.7304 19.5032 25.9998 21.4152 25.9998H21.4432C22.8072 25.9931 23.4579 25.3238 23.7726 25.0024C23.8686 24.9038 23.9459 24.8318 24.0005 24.7864C25.3286 23.4504 26.0086 22.4558 26.0019 21.8184C25.9926 21.1678 25.1832 20.3984 24.0646 19.3344C23.7086 18.9958 23.3219 18.6278 22.9139 18.2198C21.8565 17.1651 21.3326 17.3451 20.1805 17.7504C18.5872 18.3091 16.4005 19.0691 13.0032 15.6704C9.60055 12.2704 10.3619 10.0864 10.9192 8.49309C11.3219 7.34109 11.5059 6.81575 10.4472 5.75709C10.0325 5.34375 9.66055 4.95175 9.31788 4.59175C8.26055 3.47975 7.49788 2.67575 6.85122 2.66642H6.84055C6.20188 2.66642 5.20988 3.34909 3.80588 4.75309C3.80988 4.74909 3.81122 4.74775 3.81255 4.74775ZM21.4165 27.9998C18.0939 27.9998 13.7619 25.3544 8.53922 20.1344C3.29655 14.8931 0.647216 10.5478 0.667103 7.21842C0.679216 5.01842 1.83255 3.89175 2.26588 3.46909C2.28855 3.44109 2.36588 3.36509 2.39255 3.33842C4.30455 1.42509 5.59388 0.651752 6.87655 0.666214C8.36588 0.686419 9.42588 1.80109 10.7672 3.21309C11.0992 3.56242 11.4592 3.94242 11.8605 4.34242C13.8072 6.28909 13.2526 7.87709 12.8072 9.15175C12.3219 10.5424 11.9019 11.7424 14.4165 14.2571C16.9339 16.7718 18.1339 16.3518 19.5192 15.8624C20.7952 15.4171 22.3792 14.8598 24.3286 16.8064C24.7232 17.2011 25.0979 17.5571 25.4432 17.8864C26.8619 19.2344 27.9819 20.2998 28.0008 21.7931C28.0166 23.0664 27.2432 24.3638 25.3339 26.2744L24.4886 25.7011L25.2032 26.3998C24.7806 26.8331 23.6552 27.9878 21.4539 27.9998H21.4165Z" fill="white"/>
</svg>
