<svg width="150" height="150" viewBox="0 0 150 150" fill="none" xmlns="http://www.w3.org/2000/svg">
<path d="M26.6473 21.0585C26.7251 21.0585 26.7973 21.0374 26.8744 21.0355L33.5932 77.2161C28.376 77.3474 24.1673 81.6069 24.1673 86.8506C24.1673 92.1767 28.5035 96.5094 33.8341 96.5094H116.197C121.523 96.5094 125.856 92.1767 125.856 86.8506C125.856 81.6043 121.646 77.3424 116.43 77.2154L123.149 21.0353C123.226 21.0374 123.298 21.0582 123.376 21.0582C128.299 21.0582 132.305 17.0528 132.305 12.1283C132.305 7.20971 128.299 3.20752 123.376 3.20752C118.458 3.20752 114.455 7.20947 114.455 12.1283C114.455 14.8524 115.706 17.2651 117.633 18.9043L95.3906 42.0639L78.9677 20.0924C81.9012 18.6275 83.9398 15.6252 83.9398 12.1285C83.9398 7.20994 79.9343 3.20775 75.0122 3.20775C70.0889 3.20775 66.0834 7.20971 66.0834 12.1285C66.0834 15.6256 68.1223 18.628 71.0564 20.0926L54.6326 42.0641L32.3923 18.9069C34.3228 17.2677 35.5758 14.8541 35.5758 12.1285C35.5758 7.20994 31.5703 3.20775 26.647 3.20775C21.7238 3.20775 17.7188 7.20994 17.7188 12.1285C17.7188 17.053 21.724 21.0585 26.6473 21.0585ZM123.376 7.89549C125.715 7.89549 127.617 9.79416 127.617 12.1288C127.617 14.4678 125.715 16.3712 123.376 16.3712C121.042 16.3712 119.143 14.4681 119.143 12.1288C119.143 9.79393 121.042 7.89549 123.376 7.89549ZM121.169 86.8506C121.169 89.5913 118.938 91.8219 116.197 91.8219H33.8341C31.0887 91.8219 28.8548 89.5913 28.8548 86.8506C28.8548 84.1098 31.0887 81.8792 33.8341 81.8792H116.197C118.938 81.8792 121.169 84.1096 121.169 86.8506ZM75.0124 7.89549C77.3505 7.89549 79.2525 9.79416 79.2525 12.1288C79.2525 14.4678 77.3505 16.3712 75.0124 16.3712C72.6743 16.3712 70.7712 14.4681 70.7712 12.1288C70.7712 9.79393 72.6743 7.89549 75.0124 7.89549ZM55.0001 48.0196C55.688 47.9771 56.3208 47.6349 56.7328 47.0835L75.0124 22.6297L93.2909 47.0835C93.7029 47.6352 94.3357 47.9771 95.0236 48.0196C95.7136 48.0596 96.382 47.7997 96.858 47.3042L117.907 25.3864L111.711 77.1915H38.3123L32.1164 25.3864L53.1656 47.3042C53.6428 47.8009 54.3145 48.0641 55.0001 48.0196ZM26.6473 7.89549C28.9854 7.89549 30.8885 9.79416 30.8885 12.1288C30.8885 14.4678 28.9854 16.3712 26.6473 16.3712C24.3091 16.3712 22.406 14.4681 22.406 12.1288C22.4063 9.79393 24.3094 7.89549 26.6473 7.89549Z" fill="#1A1A1A"/>
<path d="M86.7593 69.9727C87.1678 70.7897 87.986 71.2556 88.8386 71.2556C89.1935 71.2556 89.5551 71.1755 89.8961 71.0051C91.0542 70.426 91.5154 69.0024 90.9363 67.8443C90.3583 66.6872 88.9507 66.2147 87.7914 66.7959C86.6334 67.3751 86.1642 68.7827 86.7431 69.9408L86.7593 69.9727Z" fill="#1A1A1A"/>
<path d="M73.1205 70.3308C73.5771 70.9397 74.2706 71.2578 74.9744 71.2578C75.4654 71.2578 75.9633 71.1033 76.3889 70.7829C77.4246 70.0069 77.6226 68.5217 76.8454 67.486C76.0706 66.4538 74.6036 66.2408 73.5644 67.0179C72.5287 67.794 72.3192 69.2633 73.0964 70.299L73.1205 70.3308Z" fill="#1A1A1A"/>
<path d="M59.0317 69.9727C59.4402 70.7897 60.2584 71.2556 61.1111 71.2556C61.4659 71.2556 61.8276 71.1755 62.1686 71.0051C63.3266 70.426 63.7879 69.0024 63.2088 67.8443C62.6296 66.6872 61.2255 66.2147 60.0639 66.7959C58.9059 67.3751 58.4366 68.7827 59.0155 69.9408L59.0317 69.9727Z" fill="#1A1A1A"/>
<path d="M45.3697 70.2987L45.3939 70.3308C45.8504 70.9397 46.5439 71.2578 47.2478 71.2578C47.7388 71.2578 48.2366 71.1033 48.6622 70.7829C49.6979 70.0069 49.896 68.5217 49.1188 67.486C48.3439 66.4538 46.8758 66.2408 45.8378 67.0179C44.8021 67.7937 44.5928 69.263 45.3697 70.2987Z" fill="#1A1A1A"/>
<path d="M100.849 70.3308C101.306 70.9397 101.999 71.2578 102.703 71.2578C103.194 71.2578 103.692 71.1033 104.117 70.7829C105.153 70.0069 105.351 68.5217 104.574 67.486C103.799 66.4538 102.332 66.2408 101.293 67.0179C100.257 67.794 100.048 69.2633 100.825 70.299L100.849 70.3308Z" fill="#1A1A1A"/>
<path d="M89.4413 105.001H60.5588C56.3394 105.001 52.9062 108.434 52.9062 112.653V139.146C52.9062 143.362 56.3394 146.792 60.5588 146.792H89.4413C93.6561 146.792 97.0859 143.362 97.0859 139.146V112.653C97.0859 108.434 93.6563 105.001 89.4413 105.001ZM60.5588 109.688H89.4413C91.0721 109.688 92.3984 111.018 92.3984 112.653V127.996L86.4589 123.22C85.6566 122.577 84.5328 122.53 83.6804 123.102L75.1705 128.832L66.8609 121.673C65.9534 120.892 64.6018 120.918 63.7288 121.739L57.5935 127.484V112.653C57.5935 111.018 58.9234 109.688 60.5588 109.688ZM89.4413 142.105H60.5588C58.9234 142.105 57.5938 140.777 57.5938 139.146V133.906L65.3963 126.599L73.4462 133.534L77.2341 137.028C77.6839 137.443 78.2539 137.648 78.8213 137.648C79.453 137.648 80.0837 137.394 80.5449 136.893C81.4227 135.942 81.3631 134.459 80.4111 133.581L78.7651 132.063L84.8661 127.955L92.3987 134.013V139.146C92.3984 140.75 91.0447 142.105 89.4413 142.105Z" fill="#1A1A1A"/>
<path d="M73.1205 121.359C73.5771 121.968 74.2706 122.286 74.9744 122.286C75.4654 122.286 75.9633 122.131 76.3889 121.811C77.4246 121.035 77.6226 119.55 76.8454 118.514C76.0706 117.482 74.6036 117.269 73.5644 118.046C72.5287 118.822 72.3192 120.291 73.0964 121.327L73.1205 121.359Z" fill="#1A1A1A"/>
<path d="M38.8711 105.001H9.98953C5.77359 105.001 2.34375 108.434 2.34375 112.653V139.146C2.34375 143.362 5.77359 146.792 9.98953 146.792H38.8711C43.0917 146.792 46.5248 143.362 46.5248 139.146V112.653C46.5248 108.434 43.0915 105.001 38.8711 105.001ZM41.8373 139.146C41.8373 140.777 40.5063 142.105 38.8711 142.105H9.98953C8.35875 142.105 7.03125 140.777 7.03125 139.146V112.653C7.03125 111.018 8.35875 109.688 9.98953 109.688H38.8711C40.5066 109.688 41.8373 111.018 41.8373 112.653V139.146Z" fill="#1A1A1A"/>
<path d="M140.003 105.001H111.121C106.905 105.001 103.476 108.434 103.476 112.653V139.146C103.476 143.362 106.905 146.792 111.121 146.792H140.003C144.224 146.792 147.657 143.362 147.657 139.146V112.653C147.657 108.434 144.224 105.001 140.003 105.001ZM142.969 139.146C142.969 140.777 141.638 142.105 140.003 142.105H111.121C109.518 142.105 108.163 140.75 108.163 139.146V112.653C108.163 111.018 109.491 109.688 111.121 109.688H140.003C141.638 109.688 142.969 111.018 142.969 112.653V139.146Z" fill="#1A1A1A"/>
<path d="M133.779 115.468H117.353C116.058 115.468 115.009 116.517 115.009 117.811C115.009 119.105 116.058 120.155 117.353 120.155H123.222V133.989C123.222 135.283 124.272 136.332 125.566 136.332C126.86 136.332 127.91 135.283 127.91 133.989V120.155H133.779C135.074 120.155 136.123 119.105 136.123 117.811C136.123 116.517 135.074 115.468 133.779 115.468Z" fill="#1A1A1A"/>
<path d="M31.6357 122.583L20.5005 116.055C19.2576 115.454 17.9381 115.494 16.8705 116.161C15.8749 116.785 15.2568 117.887 15.2568 119.038V132.754C15.2568 133.902 15.8737 135.004 16.8658 135.629C17.4129 135.973 18.0262 136.152 18.6855 136.152C19.3104 136.152 19.9764 135.991 20.6641 135.657L31.5543 129.262C32.8406 128.575 33.6246 127.27 33.6028 125.935C33.6248 124.53 32.842 123.229 31.6357 122.583ZM19.9446 130.653V121.155L28.0286 125.9L19.9446 130.653Z" fill="#1A1A1A"/>
</svg>
