<svg width="144" height="146" viewBox="0 0 144 146" fill="none" xmlns="http://www.w3.org/2000/svg">
<path d="M5.69939 83.136H14.8752C17.5039 83.136 19.6417 80.9936 19.6417 78.3616V17.2914C19.6417 16.9401 19.5627 16.5932 19.4106 16.2763L12.3964 1.67242C12.0062 0.859844 11.1847 0.34375 10.284 0.34375C9.38213 0.34375 8.56041 0.861016 8.17018 1.67359L1.16518 16.2775C1.01307 16.5944 0.934082 16.9401 0.934082 17.2914V78.3616C0.934082 80.9936 3.07182 83.136 5.69939 83.136ZM14.8754 78.4485H5.69963L5.69213 72.6142H14.8829L14.8754 78.4485ZM10.2852 8.10391L13.5718 14.9477H7.00205L10.2852 8.10391ZM14.9509 19.6352L14.8888 67.9267H5.68604L5.62393 19.6352H14.9509Z" fill="#1A1A1A"/>
<path d="M64.9215 51.3064H39.5464C38.2522 51.3064 37.2026 52.3559 37.2026 53.6501C37.2026 54.9444 38.2522 55.9939 39.5464 55.9939H64.9215C66.2157 55.9939 67.2652 54.9444 67.2652 53.6501C67.2652 52.3559 66.2157 51.3064 64.9215 51.3064Z" fill="#1A1A1A"/>
<path d="M64.9215 61.6577H39.5464C38.2522 61.6577 37.2026 62.7072 37.2026 64.0015C37.2026 65.2957 38.2522 66.3452 39.5464 66.3452H64.9215C66.2157 66.3452 67.2652 65.2957 67.2652 64.0015C67.2652 62.7072 66.2157 61.6577 64.9215 61.6577Z" fill="#1A1A1A"/>
<path d="M28.8713 121.174H13.9116C12.6174 121.174 11.5679 122.223 11.5679 123.518C11.5679 124.812 12.6174 125.861 13.9116 125.861H28.8713C30.1655 125.861 31.2151 124.812 31.2151 123.518C31.2151 122.223 30.1658 121.174 28.8713 121.174Z" fill="#1A1A1A"/>
<path d="M28.8713 129.435H13.9116C12.6174 129.435 11.5679 130.485 11.5679 131.779C11.5679 133.073 12.6174 134.123 13.9116 134.123H28.8713C30.1655 134.123 31.2151 133.073 31.2151 131.779C31.2151 130.485 30.1658 129.435 28.8713 129.435Z" fill="#1A1A1A"/>
<path d="M60.3162 121.998L60.3003 122.014C59.3848 122.929 59.3928 124.404 60.3083 125.32C60.7637 125.775 61.3623 126.003 61.962 126.003C62.5662 126.003 63.1716 125.772 63.6305 125.312C64.546 124.397 64.546 122.913 63.6305 121.998C62.7151 121.082 61.2319 121.082 60.3162 121.998Z" fill="#1A1A1A"/>
<path d="M63.6305 111.865C62.715 110.95 61.2319 110.95 60.3162 111.865L50.1837 121.998C49.2682 122.913 49.2682 124.396 50.1837 125.312L60.3162 135.445C60.7739 135.902 61.3737 136.131 61.9732 136.131C62.5727 136.131 63.1725 135.902 63.6302 135.445L73.7627 125.312C74.6782 124.397 74.6782 122.914 73.7627 121.998L63.6305 111.865ZM61.9734 130.474L55.155 123.655L61.9734 116.837L68.7919 123.655L61.9734 130.474Z" fill="#1A1A1A"/>
<path d="M141.049 38.0781H134.135V27.0859C134.135 26.4768 133.901 25.8909 133.479 25.4688L110.206 1.16406C109.76 0.695313 109.151 0.4375 108.518 0.4375H27.9399C26.6509 0.4375 25.5962 1.49219 25.5962 2.78125V90.8125H8.13525C4.17432 90.8125 0.939941 94.0469 0.939941 98.0312V138.461C0.939941 142.422 4.17432 145.656 8.13525 145.656H75.4243C78.8931 145.656 81.7993 143.195 82.479 139.938H131.792C133.081 139.938 134.135 138.883 134.135 137.594V81.6484H141.049C142.338 81.6484 143.393 80.5937 143.393 79.3047V40.4219C143.393 39.1328 142.338 38.0781 141.049 38.0781ZM110.862 8.61719L126.284 24.742H110.862V8.61719ZM71.1495 95.5L41.7812 110.877L12.414 95.5H71.1495ZM77.9321 138.461C77.9321 139.023 77.7446 139.516 77.4634 139.938C76.9946 140.57 76.2446 140.969 75.4243 140.969H8.13525C6.75244 140.969 5.62744 139.844 5.62744 138.461V98.0312C5.62744 97.7777 5.70197 97.5452 5.77228 97.3129L40.6942 115.598C41.0352 115.777 41.4083 115.866 41.7814 115.866C42.1545 115.866 42.5286 115.777 42.8687 115.598L77.788 97.3148C77.8576 97.5466 77.9321 97.7781 77.9321 98.0312V138.461ZM129.448 135.25H82.6196V98.0312C82.6196 94.0469 79.4087 90.8125 75.4243 90.8125H30.2837V5.125H106.174V27.0859C106.174 28.375 107.229 29.4297 108.518 29.4297H129.448V38.0781H78.4009C77.1118 38.0781 76.0574 39.1328 76.0574 40.4219V79.3047C76.0574 80.5937 77.112 81.6484 78.4009 81.6484H129.448V135.25ZM138.706 76.9609H80.7446V42.7656H138.706V76.9609Z" fill="#1A1A1A"/>
<path d="M116.417 58.0837H132.09C133.384 58.0837 134.434 57.0342 134.434 55.74C134.434 54.4458 133.384 53.3962 132.09 53.3962H116.417C115.123 53.3962 114.074 54.4458 114.074 55.74C114.074 57.0342 115.123 58.0837 116.417 58.0837Z" fill="#1A1A1A"/>
<path d="M116.417 66.3452H132.09C133.384 66.3452 134.434 65.2957 134.434 64.0015C134.434 62.7072 133.384 61.6577 132.09 61.6577H116.417C115.123 61.6577 114.074 62.7072 114.074 64.0015C114.074 65.2957 115.123 66.3452 116.417 66.3452Z" fill="#1A1A1A"/>
<path d="M98.766 58.2052C97.8506 57.2897 96.3674 57.2897 95.4517 58.2052L95.4438 58.2131C94.5283 59.1286 94.5328 60.6084 95.4473 61.5239C95.9039 61.9805 96.5036 62.2083 97.1031 62.2083C97.705 62.2083 98.3071 61.9784 98.766 61.5195C99.6815 60.6038 99.6815 59.1206 98.766 58.2052Z" fill="#1A1A1A"/>
<path d="M95.4634 71.6406C95.8852 72.0859 96.4946 72.3438 97.104 72.3438C97.7368 72.3438 98.3227 72.0859 98.7681 71.6406L108.893 61.5156C109.807 60.6016 109.807 59.125 108.893 58.2109L98.7681 48.0625C98.3227 47.6406 97.7368 47.3828 97.104 47.3828C96.4946 47.3828 95.8852 47.6406 95.4634 48.0625L85.3149 58.2109C84.4009 59.125 84.4009 60.6016 85.3149 61.5156L95.4634 71.6406ZM97.104 53.0547L103.924 59.8516L97.104 66.6719L90.2837 59.8516L97.104 53.0547Z" fill="#1A1A1A"/>
<path d="M50.5809 28.0992L50.565 28.1151C49.6495 29.0306 49.6575 30.5057 50.5729 31.4212C51.0283 31.8766 51.6269 32.1044 52.2267 32.1044C52.8309 32.1044 53.4363 31.8733 53.8952 31.4132C54.8107 30.4978 54.8107 29.0146 53.8952 28.0989C52.9797 27.1832 51.4966 27.1837 50.5809 28.0992Z" fill="#1A1A1A"/>
<path d="M53.8951 15.4157C52.9796 14.5 51.4965 14.5012 50.5808 15.4146L37.8894 28.098C37.4499 28.5375 37.2026 29.1337 37.2026 29.7562C37.2026 30.3775 37.4499 30.9738 37.8894 31.4132L50.5808 44.1058C51.0202 44.5453 51.6165 44.7925 52.2378 44.7925C52.8603 44.7925 53.4565 44.5453 53.896 44.1058L66.5794 31.4132C67.4937 30.4978 67.4937 29.0135 66.5783 28.0989L53.8951 15.4157ZM52.238 39.1335L42.8619 29.7574L52.238 20.3871L61.6074 29.7574L52.238 39.1335Z" fill="#1A1A1A"/>
</svg>
