<svg width="146" height="112" viewBox="0 0 146 112" fill="none" xmlns="http://www.w3.org/2000/svg">
<path d="M105.962 97.9359C104.765 98.4281 104.195 99.799 104.688 100.996L104.704 101.035C105.074 101.935 105.937 102.47 106.852 102.47C107.153 102.47 107.459 102.413 107.756 102.289C108.953 101.797 109.515 100.408 109.022 99.2109C108.528 98.0137 107.158 97.4484 105.962 97.9359Z" fill="#1A1A1A"/>
<path d="M113.533 98.1099C112.431 98.7896 112.09 100.234 112.77 101.335L112.795 101.374C113.234 102.086 113.988 102.473 114.764 102.473C115.189 102.473 115.619 102.358 116.008 102.118C117.109 101.438 117.439 99.9732 116.758 98.8721C116.077 97.7689 114.634 97.4279 113.533 98.1099Z" fill="#1A1A1A"/>
<path d="M143.092 34.5883C146.713 30.6698 146.475 24.5336 142.559 20.9081C140.665 19.1571 138.181 18.2667 135.606 18.3468C133.013 18.4453 130.621 19.5438 128.87 21.4389L128.86 21.4504C127.038 17.9374 123.402 15.543 119.185 15.543H104.118V3.15137C104.118 1.85598 103.068 0.807617 101.774 0.807617H48.2395C47.5802 0.807617 46.9509 1.08465 46.5067 1.57215L33.7734 15.543H17.2764C11.2511 15.543 6.34844 20.4457 6.34844 26.4721V90.2257C2.96078 90.727 0.34375 93.6269 0.34375 97.1531V104.155C0.34375 108.037 3.49773 111.193 7.37383 111.193H129.089C132.965 111.193 136.119 108.036 136.119 104.155V97.1531C136.119 93.6269 133.502 90.727 130.114 90.2257V48.6225L143.092 34.5883ZM126.108 46.0507L106.171 67.6113L98.8326 60.8254L124.811 32.7321L132.147 39.5203L126.118 46.0396C126.114 46.0434 126.111 46.0471 126.108 46.0507ZM104.118 90.1218V74.3915L107.213 73.0814C107.215 73.0809 107.216 73.0793 107.217 73.0788C107.513 72.9529 107.789 72.765 108.021 72.5137L115.772 64.1315V90.1216L104.118 90.1218ZM96.5943 65.1403L102.044 70.1798L93.738 73.695L96.5943 65.1403ZM104.118 30.7429H115.772V35.6029L104.118 48.2067V30.7429ZM135.786 23.0296C137.147 22.9861 138.403 23.4485 139.376 24.348C141.396 26.2181 141.518 29.3857 139.649 31.4067L135.33 36.0778L127.995 29.2896L132.312 24.6204C133.212 23.6477 134.446 23.0824 135.786 23.0296ZM119.185 20.2305C122.228 20.2305 124.745 22.402 125.294 25.3059L120.46 30.5341V28.3994C120.46 27.104 119.41 26.0557 118.116 26.0557H104.118V20.2305H119.185ZM99.4302 53.2757L93.7998 59.3648C93.5723 59.6109 93.4136 59.8936 93.3109 60.1914C93.3081 60.1999 93.3004 60.2055 93.2976 60.214L88.1814 75.5329H72.0573C70.7631 75.5329 69.7136 76.5813 69.7136 77.8767C69.7136 79.1721 70.7631 80.2204 72.0573 80.2204H89.8701C90.1952 80.2204 90.5043 80.1536 90.7858 80.0341L99.4305 76.3755V90.1218H37.7624V19.5621H48.7384C50.0327 19.5621 51.0822 18.5137 51.0822 17.2183V5.49488H99.43L99.4302 53.2757ZM84.9461 94.8093C84.6763 96.4999 83.2232 97.7986 81.4616 97.7986H54.9995C53.2389 97.7986 51.7858 96.4999 51.5162 94.8093H84.9461ZM20.6903 90.1218V30.7429H33.0752V90.1218H20.6903ZM40.7263 14.8746L46.3947 8.65449V14.8746H40.7263ZM17.2764 20.2305H33.0749V26.0557H18.3466C17.0523 26.0557 16.0028 27.104 16.0028 28.3994V90.1221H11.0359V26.4721C11.0359 23.0296 13.8351 20.2305 17.2764 20.2305ZM131.431 97.1531V104.155C131.431 105.45 130.381 106.505 129.089 106.505H7.37383C6.08172 106.505 5.03125 105.45 5.03125 104.155V97.1531C5.03125 95.8598 6.08172 94.8093 7.37383 94.8093H46.829C47.122 99.0862 50.6542 102.486 54.9995 102.486H81.4616C85.8081 102.486 89.3404 99.0862 89.6334 94.8093H129.089C130.381 94.8093 131.431 95.8598 131.431 97.1531ZM125.427 90.1218H120.46V59.0627L125.427 53.6915V90.1218Z" fill="#1A1A1A"/>
<path d="M78.3107 61.1431H48.9062C47.612 61.1431 46.5625 62.1914 46.5625 63.4868C46.5625 64.7822 47.612 65.8306 48.9062 65.8306H78.3107C79.6049 65.8306 80.6545 64.7822 80.6545 63.4868C80.6545 62.1914 79.6052 61.1431 78.3107 61.1431Z" fill="#1A1A1A"/>
<path d="M78.3107 49.6167H48.9062C47.612 49.6167 46.5625 50.6651 46.5625 51.9604C46.5625 53.2558 47.612 54.3042 48.9062 54.3042H78.3107C79.6049 54.3042 80.6545 53.2558 80.6545 51.9604C80.6545 50.6651 79.6052 49.6167 78.3107 49.6167Z" fill="#1A1A1A"/>
<path d="M46.5625 39.9119C46.5625 41.2073 47.612 42.2556 48.9062 42.2556H78.3107C79.6049 42.2556 80.6545 41.2073 80.6545 39.9119C80.6545 38.6165 79.6049 37.5681 78.3107 37.5681H48.9062C47.612 37.5681 46.5625 38.6165 46.5625 39.9119Z" fill="#1A1A1A"/>
<path d="M48.9062 26.0554C47.612 26.0554 46.5625 27.1038 46.5625 28.3992C46.5625 29.6946 47.612 30.7429 48.9062 30.7429H67.8691C69.1633 30.7429 70.2128 29.6946 70.2128 28.3992C70.2128 27.1038 69.1633 26.0554 67.8691 26.0554H48.9062Z" fill="#1A1A1A"/>
</svg>
