<svg width="147" height="114" viewBox="0 0 147 114" fill="none" xmlns="http://www.w3.org/2000/svg">
<path d="M146.156 57.0001C146.156 56.1156 145.657 55.3063 144.868 54.9081L130.271 47.5407L144.868 40.1715C145.657 39.7733 146.156 38.9642 146.156 38.0795C146.156 37.1947 145.657 36.3856 144.868 35.9874L74.5505 0.494854C73.8867 0.158291 73.1039 0.158291 72.4402 0.494854L2.13234 35.9877C1.34273 36.3859 0.84375 37.1949 0.84375 38.0795C0.84375 38.964 1.34273 39.7733 2.13 40.1715L16.7227 47.5395L2.13 54.9081C1.34273 55.3063 0.84375 56.1156 0.84375 57.0001C0.84375 57.8846 1.34273 58.6939 2.13 59.0921L16.7166 66.4552L2.13 73.8207C1.34273 74.2189 0.84375 75.028 0.84375 75.9125C0.84375 76.797 1.34273 77.6063 2.13 78.0045L72.4378 113.505C72.772 113.674 73.1337 113.757 73.4953 113.757C73.8569 113.757 74.2186 113.674 74.5505 113.505L144.87 78.0045C145.657 77.6063 146.156 76.7973 146.156 75.9125C146.156 75.0277 145.657 74.2187 144.868 73.8205L130.277 66.4564L144.868 59.0919C145.657 58.6939 146.156 57.8846 146.156 57.0001ZM73.4953 5.21212L138.612 38.0795L73.4953 70.9538L8.38781 38.0795L73.4953 5.21212ZM125.076 69.0816L138.612 75.9127L73.4953 108.788L8.38781 75.9125L21.9148 69.0814L72.4404 94.5835C73.1041 94.9201 73.887 94.9201 74.5507 94.5835L125.076 69.0816ZM73.4953 89.8663L8.38781 57.0001L21.9148 50.169L66.0846 72.463L72.4383 75.6711C72.6016 75.7534 72.7819 75.7522 72.9553 75.7941C73.4904 75.9242 74.0491 75.9254 74.5509 75.6711L125.077 50.169L138.61 57.0001L73.4953 89.8663Z" fill="#1A1A1A"/>
</svg>
