<svg width="18" height="21" viewBox="0 0 18 21" fill="none" xmlns="http://www.w3.org/2000/svg">
<path d="M13.191 0.5C16.28 0.5 18 2.28 18 5.33V15.66C18 18.76 16.28 20.5 13.191 20.5H4.81C1.77 20.5 0 18.76 0 15.66V5.33C0 2.28 1.77 0.5 4.81 0.5H13.191ZM5.08 14.24C4.78 14.21 4.49 14.35 4.33 14.61C4.17 14.86 4.17 15.19 4.33 15.45C4.49 15.7 4.78 15.85 5.08 15.81H12.92C13.319 15.77 13.62 15.429 13.62 15.03C13.62 14.62 13.319 14.28 12.92 14.24H5.08ZM12.92 9.679H5.08C4.649 9.679 4.3 10.03 4.3 10.46C4.3 10.89 4.649 11.24 5.08 11.24H12.92C13.35 11.24 13.7 10.89 13.7 10.46C13.7 10.03 13.35 9.679 12.92 9.679ZM8.069 5.15H5.08V5.16C4.649 5.16 4.3 5.51 4.3 5.94C4.3 6.37 4.649 6.72 5.08 6.72H8.069C8.5 6.72 8.85 6.37 8.85 5.929C8.85 5.5 8.5 5.15 8.069 5.15Z" fill="#777777"/>
</svg>
