<svg width="23" height="27" viewBox="0 0 23 27" fill="none" xmlns="http://www.w3.org/2000/svg">
<path fill-rule="evenodd" clip-rule="evenodd" d="M11.333 0.666504C17.3983 0.666504 22.333 5.6385 22.333 11.7505C22.333 19.2638 13.725 26.6665 11.333 26.6665C8.94101 26.6665 0.333008 19.2638 0.333008 11.7505C0.333008 5.6385 5.26767 0.666504 11.333 0.666504ZM11.333 2.6665C6.37034 2.6665 2.33301 6.7425 2.33301 11.7505C2.33301 18.1225 9.83167 24.3305 11.333 24.6612C12.8343 24.3292 20.333 18.1212 20.333 11.7505C20.333 6.7425 16.2957 2.6665 11.333 2.6665ZM11.3343 7.33317C13.7237 7.33317 15.6677 9.27717 15.6677 11.6678C15.6677 14.0572 13.7237 15.9998 11.3343 15.9998C8.94501 15.9998 7.00101 14.0572 7.00101 11.6678C7.00101 9.27717 8.94501 7.33317 11.3343 7.33317ZM11.3343 9.33317C10.0477 9.33317 9.00101 10.3798 9.00101 11.6678C9.00101 12.9545 10.0477 13.9998 11.3343 13.9998C12.621 13.9998 13.6677 12.9545 13.6677 11.6678C13.6677 10.3798 12.621 9.33317 11.3343 9.33317Z" fill="white"/>
</svg>
