<svg width="29" height="27" viewBox="0 0 29 27" fill="none" xmlns="http://www.w3.org/2000/svg">
<path fill-rule="evenodd" clip-rule="evenodd" d="M21.2117 0.666504C25.6517 0.666504 28.9997 4.28917 28.9997 9.09317V18.2505C28.9997 20.7092 28.1303 22.9305 26.5503 24.5065C25.133 25.9185 23.2943 26.6665 21.233 26.6665H8.09567C6.03834 26.6665 4.20101 25.9198 2.78234 24.5065C1.20234 22.9305 0.333008 20.7092 0.333008 18.2505V9.09317C0.333008 4.28917 3.68101 0.666504 8.12101 0.666504H21.2117ZM21.2117 2.6665H8.12101C4.76767 2.6665 2.33301 5.36917 2.33301 9.09317V18.2505C2.33301 20.1745 2.99434 21.8932 4.19434 23.0892C5.22901 24.1225 6.57967 24.6665 8.09967 24.6665H21.2117C21.2143 24.6638 21.225 24.6665 21.233 24.6665C22.7543 24.6665 24.1037 24.1225 25.1383 23.0892C26.3397 21.8932 26.9997 20.1745 26.9997 18.2505V9.09317C26.9997 5.36917 24.565 2.6665 21.2117 2.6665ZM23.313 8.83824C23.661 9.26624 23.5957 9.89557 23.1677 10.2449L17.2423 15.0609C16.493 15.6556 15.597 15.9529 14.7023 15.9529C13.8103 15.9529 12.921 15.6582 12.177 15.0689L6.19701 10.2476C5.76634 9.9009 5.69967 9.27024 6.04501 8.8409C6.39301 8.4129 7.02234 8.3449 7.45167 8.69024L13.4263 13.5062C14.177 14.1009 15.2343 14.1009 15.9903 13.5009L21.905 8.6929C22.3343 8.34224 22.9637 8.4089 23.313 8.83824Z" fill="white"/>
</svg>
