<svg width="11" height="13" viewBox="0 0 11 13" fill="none" xmlns="http://www.w3.org/2000/svg">
<path d="M9.88078 5.369C9.82428 5.311 9.61094 5.063 9.4122 4.859C8.24708 3.576 5.20762 1.476 3.61678 0.835C3.37518 0.732 2.76437 0.514 2.43802 0.5C2.1253 0.5 1.8272 0.572 1.54274 0.718C1.18814 0.922 0.903678 1.243 0.747808 1.622C0.647468 1.885 0.491598 2.672 0.491598 2.686C0.335729 3.547 0.25 4.946 0.25 6.492C0.25 7.965 0.335729 9.307 0.463346 10.181C0.47796 10.195 0.633828 11.173 0.804311 11.508C1.11702 12.12 1.72784 12.5 2.38152 12.5H2.43802C2.86374 12.485 3.75901 12.105 3.75901 12.091C5.26413 11.449 8.23344 9.452 9.42681 8.125C9.42681 8.125 9.76291 7.784 9.90904 7.571C10.137 7.265 10.25 6.886 10.25 6.507C10.25 6.084 10.1224 5.69 9.88078 5.369Z" fill="#1A1A1A"/>
</svg>
