<svg width="151" height="150" viewBox="0 0 151 150" fill="none" xmlns="http://www.w3.org/2000/svg">
<path d="M136.244 48.4978H133.446V36.2526C133.446 31.4004 129.496 27.4521 124.639 27.4521H120.518V10.6819C120.518 7.41115 117.858 4.75146 114.589 4.75146H37.3902C34.1206 4.75146 31.4609 7.41115 31.4609 10.6819V27.4521H27.3399C22.483 27.4521 18.5326 31.4004 18.5326 36.2526V48.4978H14.7559C8.18703 48.4978 2.84375 53.8422 2.84375 60.4111V115.608C2.84375 122.177 8.18703 127.522 14.7559 127.522H24.623L21.6303 137.958C21.1873 139.508 21.5089 141.112 22.5366 142.474C23.807 144.159 26.0225 145.248 28.182 145.248H122.794C124.957 145.248 127.176 144.159 128.447 142.47C129.475 141.108 129.796 139.506 129.354 137.959L126.361 127.522H136.244C142.813 127.522 148.156 122.177 148.156 115.609V60.4111C148.156 53.8422 142.813 48.4978 136.244 48.4978ZM124.639 32.1396C126.91 32.1396 128.758 33.9844 128.758 36.2526V48.4978H120.518V32.1396H124.639ZM36.1484 10.6819C36.1484 10.009 36.7173 9.43896 37.3902 9.43896H114.589C115.261 9.43896 115.83 10.009 115.83 10.6819V48.4978H36.1484V10.6819ZM23.2198 36.2526C23.2198 33.9844 25.0681 32.1396 27.3397 32.1396H31.4609V48.4978H23.2198V36.2526ZM124.705 139.65C124.319 140.16 123.479 140.561 122.794 140.561H28.182C27.4873 140.561 26.6703 140.17 26.2789 139.652C26.0923 139.405 26.1245 139.291 26.1371 139.249L35.5705 106.348H39.9741L33.2199 132.607C33.0392 133.308 33.1937 134.054 33.6364 134.626C34.0805 135.2 34.7647 135.535 35.4891 135.535H115.495C116.231 135.535 116.924 135.189 117.367 134.601C117.81 134.015 117.95 133.253 117.748 132.545L110.236 106.348H115.414L124.847 139.249C124.86 139.291 124.89 139.403 124.705 139.65ZM38.5116 130.847L40.7855 122.008L58.3878 113.779L74.2337 122.776L57.6022 130.847H38.5116ZM96.5 117.378L110.562 124.493L112.384 130.847H68.3363L96.5 117.378ZM97.5929 112.676C96.9439 112.351 96.1852 112.342 95.5318 112.649L79.3637 120.3L59.649 109.106C58.9888 108.728 58.1865 108.7 57.4998 109.019L42.2989 116.124L44.814 106.348H105.36L108.8 118.346L97.5929 112.676ZM143.469 115.608C143.469 119.593 140.228 122.834 136.244 122.834H125.017L120.29 106.348H127.197C128.491 106.348 129.54 105.299 129.54 104.004C129.54 102.709 128.491 101.66 127.197 101.66H23.7795C22.4853 101.66 21.4358 102.709 21.4358 104.004C21.4358 105.299 22.4853 106.348 23.7795 106.348H30.6941L25.967 122.834H14.7559C10.7722 122.834 7.53125 119.593 7.53125 115.608V60.4111C7.53125 56.4262 10.7722 53.1853 14.7559 53.1853H20.8761H33.8047H118.174H131.102H136.244C140.228 53.1853 143.469 56.4262 143.469 60.4111V115.608Z" fill="#1A1A1A"/>
<path d="M129.347 64.7393H119.673C118.379 64.7393 117.329 65.7876 117.329 67.083C117.329 68.3784 118.379 69.4268 119.673 69.4268H129.347C130.641 69.4268 131.69 68.3784 131.69 67.083C131.69 65.7876 130.641 64.7393 129.347 64.7393Z" fill="#1A1A1A"/>
<path d="M129.347 77.5566H119.673C118.379 77.5566 117.329 78.605 117.329 79.9004C117.329 81.1958 118.379 82.2441 119.673 82.2441H129.347C130.641 82.2441 131.69 81.1958 131.69 79.9004C131.69 78.605 130.641 77.5566 129.347 77.5566Z" fill="#1A1A1A"/>
</svg>
