<svg width="146" height="146" viewBox="0 0 146 146" fill="none" xmlns="http://www.w3.org/2000/svg">
<path d="M28.5659 123.738L28.662 123.787C28.9927 123.951 29.3395 124.029 29.6805 124.029C30.532 124.029 31.3446 123.542 31.7588 122.713C32.3379 121.557 31.8206 120.124 30.6623 119.545C29.502 118.968 28.0955 119.438 27.5175 120.594C26.9386 121.752 27.4078 123.16 28.5659 123.738Z" fill="#1A1A1A"/>
<path d="M30.8137 129.516C29.6991 128.85 28.2628 129.218 27.6002 130.331C26.9388 131.443 27.3037 132.883 28.4151 133.544L28.5112 133.601C28.8797 133.821 29.2791 133.924 29.6716 133.924C30.4648 133.924 31.2337 133.501 31.6767 132.757C32.3381 131.644 31.9249 130.177 30.8137 129.516Z" fill="#1A1A1A"/>
<path d="M74.0909 133.574C72.9465 132.963 71.5264 133.406 70.9231 134.551C70.3189 135.695 70.756 137.112 71.9004 137.716L72.0218 137.78C72.3629 137.961 72.7233 138.046 73.0758 138.046C73.909 138.046 74.7043 137.574 75.129 136.771C75.7332 135.627 75.2354 134.178 74.0909 133.574Z" fill="#1A1A1A"/>
<path d="M117.423 119.541C116.263 118.964 114.858 119.442 114.284 120.603C113.711 121.763 114.187 123.171 115.347 123.743L115.444 123.791C115.772 123.953 116.115 124.029 116.453 124.029C117.309 124.029 118.124 123.537 118.536 122.704C119.109 121.544 118.584 120.113 117.423 119.541Z" fill="#1A1A1A"/>
<path d="M117.574 129.509C116.458 128.85 115.022 129.225 114.366 130.342C113.709 131.457 114.082 132.894 115.198 133.551L115.296 133.608C115.661 133.823 116.055 133.924 116.444 133.924C117.242 133.924 118.013 133.496 118.455 132.747C119.111 131.63 118.69 130.166 117.574 129.509Z" fill="#1A1A1A"/>
<path d="M126.421 102.251V98.1714C130.176 94.8027 132.598 89.6036 132.598 83.7665C132.598 73.634 125.325 65.3908 116.386 65.3908C115.8 65.3908 115.231 65.4632 114.661 65.5323C117.445 59.5209 118.907 52.9584 118.907 46.2473C118.907 20.9362 98.3109 0.34375 72.9954 0.34375C47.6798 0.34375 27.0853 20.9362 27.0853 46.247C27.0853 52.9396 28.5422 59.4885 31.3193 65.4944C30.7587 65.4276 30.1903 65.3908 29.6145 65.3908C20.6709 65.3908 13.3948 73.634 13.3948 83.7665C13.3948 89.6317 15.8416 94.8515 19.6298 98.2185C19.62 98.305 19.579 98.3807 19.579 98.4698V102.251C8.80664 104.249 0.650391 113.839 0.650391 124.97V139.534C0.650391 140.829 1.69992 141.877 2.99414 141.877H39.5489V143.312C39.5489 144.608 40.5984 145.656 41.8927 145.656H104.099C105.394 145.656 106.443 144.608 106.443 143.312V141.877H143.006C144.3 141.877 145.35 140.829 145.35 139.534V124.97C145.35 113.839 137.194 104.249 126.421 102.251ZM127.043 107.208L123.084 112.727L120.165 110.468L124.763 106.75C125.539 106.859 126.301 107.005 127.043 107.208ZM56.2228 114.908C53.7698 109.878 49.5945 105.958 44.553 103.782C44.5331 103.777 44.5153 103.763 44.4954 103.759C42.9462 103.095 41.3346 102.56 39.6499 102.249V98.1709C43.4044 94.8023 45.8252 89.6034 45.8252 83.7665C45.8252 83.5663 45.8044 83.372 45.7987 83.1733C48.5984 85.2419 51.6075 86.9934 54.8191 88.3919L54.8763 95.293C54.8763 101.711 57.663 106.429 61.6695 109.376V113.32C59.7741 113.646 57.9586 114.198 56.2228 114.908ZM37.9697 106.769C38.7471 106.876 39.5114 107.02 40.2588 107.223L36.3115 112.727L33.3933 110.468L37.9697 106.769ZM69.1355 80.3012C68.6857 79.7725 68.0311 79.4751 67.3502 79.4751C67.2232 79.4751 67.0938 79.4866 66.9656 79.5072C66.153 79.6422 65.471 80.1939 65.1689 80.9605C63.5747 85.0141 61.4988 86.1609 59.4755 86.4857V84.673C59.4755 77.2023 62.7141 72.7848 68.5941 72.2334C70.3657 72.0686 72.2105 72.1441 74.1581 72.2266C78.4657 72.4016 83.3306 72.6077 88.8959 70.2091C89.7427 70.9816 91.3003 73.6525 91.616 77.1843C91.8633 79.9401 91.4044 83.7487 87.9677 86.6141C79.8218 86.6071 74.3355 86.4147 69.1355 80.3012ZM86.4286 91.2927V95.293C86.4286 104.233 79.466 108.305 72.9956 108.305C66.5262 108.305 59.5636 104.233 59.5636 95.293V91.2065C62.1117 90.9358 65.4094 89.886 67.9704 85.8128C73.5035 90.7427 79.601 91.2416 86.4286 91.2927ZM63.3246 117.835L69.218 122.603L65.0878 125.799L59.8938 118.557C61.0022 118.223 62.1502 117.989 63.3246 117.835ZM66.3567 114.259V111.857C68.4802 112.611 70.7412 112.993 72.9954 112.993C75.2531 112.993 77.5172 112.61 79.6432 111.854V114.259L72.9966 119.631L66.3567 114.259ZM82.6739 117.835C83.8463 117.988 84.9928 118.222 86.0995 118.556L80.9044 125.799L76.7742 122.603L82.6739 117.835ZM84.3309 113.32V109.369C88.3329 106.422 91.1161 101.706 91.1161 95.293V90.0595C92.1473 89.1782 92.9831 88.2208 93.6804 87.2214C95.9637 86.0699 98.1347 84.7258 100.192 83.2178C100.187 83.4016 100.167 83.5811 100.167 83.7665C100.167 89.6059 102.592 94.807 106.351 98.1754C106.351 98.2743 106.35 98.376 106.35 98.4698V102.249C104.666 102.559 103.055 103.095 101.506 103.758C101.481 103.764 101.46 103.781 101.435 103.787C96.3991 105.964 92.2085 109.878 89.7499 114.897C88.0223 114.193 86.2163 113.645 84.3309 113.32ZM108.03 106.769L112.607 110.468L109.689 112.727L105.742 107.224C106.489 107.02 107.253 106.876 108.03 106.769ZM111.038 103.175V101.095C112.715 101.762 114.51 102.143 116.386 102.143C118.261 102.143 120.056 101.762 121.733 101.095V103.175L116.386 107.497L111.038 103.175ZM116.386 97.4561C111.036 97.4561 106.539 93.1033 105.243 87.2284C107.756 86.9151 110.919 85.814 113.394 81.8716C117.93 85.8977 122.781 86.9216 127.525 87.2172C126.232 93.0974 121.736 97.4561 116.386 97.4561ZM116.386 70.0783C122.393 70.0783 127.334 75.5662 127.858 82.5423C122.32 82.1809 118.362 80.8309 114.553 76.36C114.02 75.7352 113.2 75.4398 112.382 75.568C111.57 75.703 110.889 76.2569 110.588 77.0238C109 81.0679 106.928 82.206 104.907 82.533C105.435 75.5613 110.378 70.0783 116.386 70.0783ZM107.935 68.1184C105.331 69.937 103.205 72.553 101.844 75.6798C100.105 77.3819 98.2299 78.9133 96.2395 80.2738C96.4814 78.0367 96.2674 75.823 95.7745 73.8309C103.455 67.4922 108.056 58.4791 108.695 48.5905H114.136C113.745 55.5332 111.626 62.2326 107.935 68.1184ZM75.3391 5.15008C96.1978 6.33133 112.919 23.0493 114.101 43.9035H108.706C107.539 26.0238 93.2231 11.7105 75.3391 10.5449V5.15008ZM72.9954 27.4572C74.2896 27.4572 75.3391 26.4077 75.3391 25.1134V15.2322C90.6401 16.3797 102.87 28.6066 104.018 43.9033H94.1374C92.8432 43.9033 91.7937 44.9528 91.7937 46.247C91.7937 47.5412 92.8432 48.5908 94.1374 48.5908H104.015C103.424 56.5588 99.8714 63.8601 93.9645 69.2319C93.9499 69.2071 93.9368 69.1783 93.9223 69.1537C91.1723 64.4765 88.3113 65.3291 87.4988 65.7011C82.7243 67.8892 78.657 67.7186 74.3541 67.5423C72.3375 67.4598 70.2537 67.3717 68.1581 67.5665C63.6391 67.9902 60.1467 70.0935 57.8494 73.4591C48.7554 68.3777 42.7526 58.9698 41.9597 48.591H51.863C53.1572 48.591 54.2067 47.5415 54.2067 46.2473C54.2067 44.953 53.1572 43.9035 51.863 43.9035H41.982C43.1297 28.607 55.3563 16.3804 70.6516 15.2322V25.1132C70.6516 26.4077 71.7012 27.4572 72.9954 27.4572ZM70.6516 5.15008V10.5449C52.7721 11.7107 38.4598 26.024 37.2942 43.9035H31.8914C33.0731 23.0491 49.7941 6.33109 70.6516 5.15008ZM37.2562 48.5908C38.0637 60.7562 45.1048 71.7993 55.7984 77.6716C55.2691 79.3527 54.9457 81.2148 54.8379 83.2377C50.9016 81.3013 47.3093 78.7778 44.1431 75.667C42.7823 72.5437 40.6669 69.9259 38.0611 68.1123C34.368 62.2216 32.2486 55.5236 31.8548 48.5908H37.2562ZM29.6145 70.0783C35.6205 70.0783 40.5616 75.5664 41.0852 82.5426C35.5484 82.1819 31.5905 80.8323 27.7809 76.36C27.2477 75.7352 26.4305 75.4398 25.6099 75.568C24.7973 75.703 24.1165 76.2569 23.8155 77.0238C22.2279 81.0679 20.156 82.206 18.1348 82.533C18.6626 75.5613 23.6067 70.0783 29.6145 70.0783ZM18.4702 87.2284C20.9829 86.9151 24.1462 85.814 26.6217 81.8716C31.158 85.8995 36.0094 86.9226 40.752 87.2177C39.4594 93.0979 34.9631 97.4561 29.6142 97.4561C24.2651 97.4561 19.7672 93.1031 18.4702 87.2284ZM29.6145 102.144C31.4904 102.144 33.285 101.762 34.9622 101.095V103.175L29.6145 107.497L24.2667 103.175V101.096C25.9439 101.762 27.7385 102.144 29.6145 102.144ZM21.2365 106.75L25.8354 110.468L22.916 112.727L18.9574 107.208C19.699 107.005 20.4612 106.859 21.2365 106.75ZM5.33812 124.97C5.33812 118.284 9.03914 112.309 14.5336 109.082L20.5233 117.433C20.8941 117.95 21.4594 118.293 22.0889 118.385C22.2012 118.401 22.3144 118.41 22.4276 118.41C22.9437 118.41 23.4483 118.241 23.8615 117.92L29.6142 113.472L35.3662 117.92C35.7795 118.241 36.2841 118.41 36.8002 118.41C36.9124 118.41 37.0268 118.401 37.1388 118.385C37.7684 118.293 38.3337 117.95 38.7045 117.433L44.7054 109.067C47.8617 110.91 50.4274 113.689 52.0479 117.064C45.1802 121.42 40.4114 128.805 39.6567 137.19H17.3841V129.525C17.3841 128.229 16.3345 127.181 15.0403 127.181C13.7461 127.181 12.6966 128.229 12.6966 129.525V137.19H5.33812V124.97ZM101.756 140.969H44.2364V139.534C44.2364 131.453 48.7798 124.249 55.4866 120.456L62.6946 130.507C63.0654 131.024 63.6307 131.367 64.2602 131.459C64.3734 131.475 64.4869 131.484 64.5989 131.484C65.115 131.484 65.6196 131.315 66.0328 130.994L72.9956 125.608L79.9591 130.994C80.3723 131.315 80.877 131.484 81.3931 131.484C81.5053 131.484 81.6185 131.475 81.7317 131.459C82.3613 131.367 82.9266 131.024 83.2973 130.507L90.5065 120.454C97.2124 124.247 101.756 131.452 101.756 139.534V140.969ZM140.662 137.19H133.295V129.525C133.295 128.229 132.246 127.181 130.952 127.181C129.657 127.181 128.608 128.229 128.608 129.525V137.19H106.335C105.58 128.794 100.801 121.401 93.9216 117.047C95.5474 113.674 98.1389 110.909 101.295 109.067L107.296 117.433C107.666 117.95 108.232 118.293 108.861 118.385C108.975 118.401 109.087 118.41 109.2 118.41C109.716 118.41 110.221 118.241 110.634 117.92L116.386 113.472L122.139 117.92C122.552 118.241 123.056 118.41 123.573 118.41C123.686 118.41 123.799 118.401 123.911 118.385C124.541 118.293 125.106 117.95 125.477 117.433L131.466 109.082C136.961 112.31 140.662 118.285 140.662 124.97V137.19Z" fill="#1A1A1A"/>
</svg>
