<svg width="146" height="146" viewBox="0 0 146 146" fill="none" xmlns="http://www.w3.org/2000/svg">
<path d="M109.364 32.4021H37.3032C36.0078 32.4021 34.9595 33.4516 34.9595 34.7458V56.033C34.9595 57.3272 36.0078 58.3767 37.3032 58.3767H50.1756C51.471 58.3767 52.5193 57.3272 52.5193 56.033V49.9631H64.554V96.037H58.6695C57.3742 96.037 56.3258 97.0854 56.3258 98.3808V111.255C56.3258 112.551 57.3742 113.599 58.6695 113.599H87.9915C89.2869 113.599 90.3353 112.551 90.3353 111.255V98.3808C90.3353 97.0854 89.2869 96.037 87.9915 96.037H82.1139V49.9631H94.1485V56.033C94.1485 57.3272 95.1969 58.3767 96.4923 58.3767H109.365C110.66 58.3767 111.708 57.3272 111.708 56.033V34.7458C111.708 33.4516 110.66 32.4021 109.364 32.4021ZM107.02 53.6892H98.8356V47.6194C98.8356 46.3251 97.7872 45.2756 96.4918 45.2756H79.7696C78.4742 45.2756 77.4259 46.3251 77.4259 47.6194V98.3808C77.4259 99.6762 78.4742 100.725 79.7696 100.725H85.6473V108.912H61.0131V100.725H66.8975C68.1929 100.725 69.2413 99.6762 69.2413 98.3808V47.6194C69.2413 46.3251 68.1929 45.2756 66.8975 45.2756H50.1753C48.8799 45.2756 47.8316 46.3251 47.8316 47.6194V53.6892H39.647V37.0896H107.02V53.6892Z" fill="#1A1A1A"/>
<path d="M143.644 20.848C144.939 20.848 145.988 19.7985 145.988 18.5043V2.6875C145.988 1.39328 144.939 0.34375 143.644 0.34375H127.819C126.523 0.34375 125.475 1.39328 125.475 2.6875V8.25156H83.5805V2.6875C83.5805 1.39328 82.5321 0.34375 81.2367 0.34375H65.4211C64.1257 0.34375 63.0773 1.39328 63.0773 2.6875V8.25156H21.1828V2.6875C21.1828 1.39328 20.1345 0.34375 18.8391 0.34375H3.02344C1.72805 0.34375 0.679688 1.39328 0.679688 2.6875V18.5043C0.679688 19.7985 1.72805 20.848 3.02344 20.848H8.5875V62.7438H3.02344C1.72805 62.7438 0.679688 63.7933 0.679688 65.0875V80.9031C0.679688 82.1985 1.72805 83.2469 3.02344 83.2469H8.5875V125.144H3.02344C1.72805 125.144 0.679688 126.192 0.679688 127.488V143.312C0.679688 144.608 1.72805 145.656 3.02344 145.656H18.8391C20.1345 145.656 21.1828 144.608 21.1828 143.312V137.748H63.0773V143.312C63.0773 144.608 64.1257 145.656 65.4211 145.656H81.2367C82.5321 145.656 83.5805 144.608 83.5805 143.312V137.748H125.475V143.312C125.475 144.608 126.523 145.656 127.819 145.656H143.644C144.939 145.656 145.988 144.608 145.988 143.312V127.488C145.988 126.192 144.939 125.144 143.644 125.144H138.08V83.2469H143.644C144.939 83.2469 145.988 82.1985 145.988 80.9031V65.0875C145.988 63.7933 144.939 62.7438 143.644 62.7438H138.08V20.848H143.644ZM130.163 5.03125H141.3V16.1605H130.163V5.03125ZM67.7648 5.03125H78.893V16.1605H67.7648V5.03125ZM5.36719 5.03125H16.4953V16.1605H5.36719V5.03125ZM5.36719 67.4313H16.4953V78.5594H5.36719V67.4313ZM16.4953 140.969H5.36719V129.831H16.4953V140.969ZM78.8932 140.969H67.7651V129.831H78.8932V140.969ZM141.3 140.969H130.163V129.831H141.3V140.969ZM141.3 78.5596H130.163V67.4315H141.3V78.5596ZM133.392 62.7438H127.819C126.524 62.7438 125.475 63.7933 125.475 65.0875V80.9031C125.475 82.1985 126.524 83.2469 127.819 83.2469H133.392V125.144H127.819C126.524 125.144 125.475 126.192 125.475 127.488V133.061H83.5807V127.488C83.5807 126.192 82.5323 125.144 81.237 125.144H65.4213C64.1259 125.144 63.0776 126.192 63.0776 127.488V133.061H21.1828V127.488C21.1828 126.192 20.1345 125.144 18.8391 125.144H13.275V83.2469H18.8391C20.1345 83.2469 21.1828 82.1985 21.1828 80.9031V65.0875C21.1828 63.7933 20.1345 62.7438 18.8391 62.7438H13.275V20.848H18.8391C20.1345 20.848 21.1828 19.7985 21.1828 18.5043V12.9391H63.0773V18.5043C63.0773 19.7985 64.1257 20.848 65.4211 20.848H81.2367C82.5321 20.848 83.5805 19.7985 83.5805 18.5043V12.9391H125.475V18.5043C125.475 19.7985 126.523 20.848 127.819 20.848H133.392L133.392 62.7438Z" fill="#1A1A1A"/>
</svg>
