<svg width="28" height="28" viewBox="0 0 28 28" fill="none" xmlns="http://www.w3.org/2000/svg">
<path d="M14.0001 0.666992C21.3734 0.666992 27.3334 6.64033 27.3334 14.0003C27.3334 21.3737 21.3734 27.3337 14.0001 27.3337C6.64008 27.3337 0.666748 21.3737 0.666748 14.0003C0.666748 6.64033 6.64008 0.666992 14.0001 0.666992ZM13.5334 7.24032C12.9867 7.24032 12.5334 7.68033 12.5334 8.24032V14.9737C12.5334 15.3203 12.7201 15.6403 13.0267 15.827L18.2534 18.947C18.4134 19.0403 18.5867 19.0937 18.7734 19.0937C19.1067 19.0937 19.4401 18.9203 19.6267 18.6003C19.9067 18.1337 19.7601 17.5203 19.2801 17.227L14.5334 14.4003V8.24032C14.5334 7.68033 14.0801 7.24032 13.5334 7.24032Z" fill="black"/>
</svg>
