<svg width="135" height="31" viewBox="0 0 135 31" fill="none" xmlns="http://www.w3.org/2000/svg">
<path d="M13.6667 13.368C14.3708 13.368 14.9148 13.56 15.2987 13.944C15.7041 14.328 15.9068 14.8613 15.9068 15.544C15.9068 15.7147 15.8854 15.896 15.8428 16.088C15.8214 16.2587 15.7894 16.408 15.7468 16.536C15.4694 16.4933 15.1601 16.4613 14.8188 16.44C14.4774 16.3973 14.0721 16.376 13.6028 16.376C12.6854 16.376 11.7574 16.4613 10.8188 16.632C9.88008 16.7813 8.98408 16.9093 8.13075 17.016C7.64008 18.1467 7.19208 19.2453 6.78675 20.312C6.38142 21.3573 6.02942 22.3173 5.73075 23.192C5.45342 24.0667 5.22942 24.824 5.05875 25.464C4.90942 26.104 4.82408 26.584 4.80275 26.904C6.53075 26.5413 8.26942 26.232 10.0188 25.976C11.7894 25.72 13.6454 25.528 15.5868 25.4C15.8214 25.7627 16.0134 26.1573 16.1628 26.584C16.3334 27.0107 16.4188 27.4693 16.4188 27.96C16.4188 28.088 16.4188 28.2267 16.4188 28.376C16.4188 28.5253 16.3974 28.6747 16.3548 28.824C15.7574 28.8027 15.1281 28.7813 14.4668 28.76C13.8054 28.76 12.9414 28.76 11.8748 28.76C11.1708 28.76 10.4988 28.7707 9.85875 28.792C9.24008 28.8347 8.61075 28.888 7.97075 28.952C7.33075 29.016 6.64808 29.1013 5.92275 29.208C5.21875 29.3147 4.41875 29.4427 3.52275 29.592C2.54142 29.208 1.59208 28.2693 0.67475 26.776C1.03742 26.008 1.53875 24.8453 2.17875 23.288C2.84008 21.7093 3.67208 19.608 4.67475 16.984C3.71475 16.6853 3.08542 16.152 2.78675 15.384C2.89342 15.2773 3.20275 15.1493 3.71475 15C4.22675 14.8293 4.85608 14.6587 5.60275 14.488C5.92275 13.656 6.18942 12.9307 6.40275 12.312C6.63742 11.6933 6.84008 11.1173 7.01075 10.584C7.18142 10.0293 7.33075 9.496 7.45875 8.984C7.60808 8.45067 7.74675 7.87467 7.87475 7.256C7.12808 7.21333 6.54142 7.01067 6.11475 6.648C5.68808 6.264 5.47475 5.77333 5.47475 5.176C5.47475 5.00533 5.49608 4.80267 5.53875 4.568C5.60275 4.33333 5.66675 4.13067 5.73075 3.96C6.15742 4.024 6.56275 4.06667 6.94675 4.088C7.35208 4.10933 7.87475 4.12 8.51475 4.12C9.85875 4.12 11.1174 4.088 12.2908 4.024C13.4641 3.93866 14.5201 3.85333 15.4588 3.768C16.4188 3.68267 17.2401 3.608 17.9228 3.544C18.6054 3.45867 19.1281 3.416 19.4908 3.416C19.9814 3.416 20.4188 3.672 20.8028 4.184C21.1868 4.696 21.4748 5.42133 21.6668 6.36C21.0054 6.296 20.4614 6.25333 20.0348 6.232C19.6294 6.21067 19.2668 6.2 18.9468 6.2C17.7734 6.2 16.6961 6.264 15.7148 6.392C14.7548 6.49866 13.8268 6.616 12.9308 6.744C12.8028 6.936 12.6534 7.18133 12.4828 7.48C12.3334 7.77867 12.1308 8.19467 11.8748 8.728C11.6188 9.26133 11.2988 9.93333 10.9148 10.744C10.5521 11.5547 10.1041 12.568 9.57075 13.784C10.3814 13.656 11.1388 13.56 11.8428 13.496C12.5681 13.4107 13.1761 13.368 13.6667 13.368ZM19.3533 24.952C19.3533 24.0133 19.5773 22.7013 20.0253 21.016C20.4733 19.3093 21.1026 17.3253 21.9133 15.064C23.2359 11.4587 24.4733 8.46133 25.6253 6.072C26.7986 3.66133 27.9399 1.784 29.0493 0.439999C29.3053 0.482665 29.6146 0.589331 29.9773 0.759998C30.3613 0.930665 30.7346 1.12267 31.0973 1.336C31.4599 1.528 31.7799 1.73067 32.0573 1.944C32.3559 2.15733 32.5479 2.328 32.6333 2.456C30.9693 4.41867 29.5079 6.53067 28.2493 8.792C26.9906 11.0533 25.8386 13.6453 24.7933 16.568C23.8973 19.0853 23.2146 21.3573 22.7453 23.384C22.2759 25.3893 22.0413 27.064 22.0413 28.408C22.0413 28.7707 22.0413 28.9947 22.0413 29.08C22.0413 29.1653 22.0519 29.2507 22.0733 29.336C21.7746 29.2933 21.5186 29.2187 21.3053 29.112C21.0919 29.0053 20.9533 28.8773 20.8893 28.728C20.8466 28.6213 20.7293 28.4613 20.5373 28.248C20.3453 28.056 20.1746 27.9067 20.0253 27.8C19.8333 27.672 19.6733 27.3413 19.5453 26.808C19.4173 26.2533 19.3533 25.6347 19.3533 24.952ZM26.9798 24.856C26.9798 24.664 26.9904 24.4293 27.0118 24.152C27.0544 23.8533 27.1184 23.4693 27.2038 23C27.2891 22.5093 27.3958 21.9227 27.5238 21.24C27.6731 20.5573 27.8544 19.736 28.0677 18.776C28.1104 18.5627 28.2064 18.2213 28.3558 17.752C28.5051 17.2827 28.6971 16.792 28.9318 16.28C29.1878 15.7467 29.4864 15.2347 29.8278 14.744C30.1904 14.2533 30.6171 13.8907 31.1078 13.656C31.4704 13.7413 31.9504 13.9653 32.5478 14.328C33.1451 14.6693 33.6571 15.1493 34.0838 15.768C33.5931 16.3227 33.1771 16.8773 32.8358 17.432C32.5158 17.9867 32.2171 18.5627 31.9398 19.16C31.6838 19.7573 31.4384 20.376 31.2038 21.016C30.9904 21.656 30.7451 22.328 30.4678 23.032C30.2331 23.6293 30.0198 24.248 29.8278 24.888C29.6358 25.5067 29.5291 26.0507 29.5078 26.52C29.5078 26.904 29.4971 27.1707 29.4758 27.32C29.4758 27.4907 29.4224 27.576 29.3158 27.576C29.2304 27.576 29.0598 27.5227 28.8038 27.416C28.5478 27.3093 28.2811 27.1493 28.0038 26.936C27.7478 26.7013 27.5131 26.4133 27.2998 26.072C27.0864 25.7307 26.9798 25.3253 26.9798 24.856ZM33.0918 10.968C33.0918 10.84 33.1238 10.648 33.1878 10.392C33.0811 10.2853 32.9851 10.1253 32.8998 9.912C32.8358 9.69867 32.8038 9.50667 32.8038 9.336C32.8038 9.144 32.8251 8.888 32.8678 8.568C32.9318 8.22667 33.0064 7.864 33.0918 7.48C33.1771 7.096 33.2838 6.70133 33.4118 6.296C33.5398 5.86933 33.6678 5.48533 33.7958 5.144C34.0518 5.144 34.3611 5.21867 34.7238 5.368C35.1078 5.496 35.4918 5.67733 35.8758 5.912C36.2598 6.12533 36.6118 6.37067 36.9318 6.648C37.2518 6.904 37.4971 7.14933 37.6678 7.384C37.4331 7.61867 37.1238 7.94933 36.7398 8.376C36.3558 8.78133 35.9824 9.21867 35.6198 9.688C35.2571 10.136 34.9264 10.5627 34.6278 10.968C34.3291 11.3733 34.1371 11.6613 34.0518 11.832C33.7958 11.7893 33.5718 11.6827 33.3798 11.512C33.1878 11.32 33.0918 11.1387 33.0918 10.968ZM36.1795 14.744C36.0728 14.616 35.9768 14.3493 35.8915 13.944C35.8062 13.5173 35.7635 13.1547 35.7635 12.856C36.3182 12.8987 36.8515 12.9413 37.3635 12.984C37.8755 13.0053 38.3448 13.0267 38.7715 13.048C39.0915 12.408 39.4328 11.7787 39.7955 11.16C40.1795 10.52 40.5422 9.944 40.8835 9.432C41.2462 8.89867 41.5768 8.45067 41.8755 8.088C42.1955 7.72533 42.4408 7.49067 42.6115 7.384C42.8248 7.384 43.0915 7.42667 43.4115 7.512C43.7528 7.576 44.0942 7.672 44.4355 7.8C44.7768 7.90667 45.0862 8.024 45.3635 8.152C45.6408 8.28 45.8328 8.408 45.9395 8.536C45.2995 9.34667 44.7448 10.104 44.2755 10.808C43.8275 11.4907 43.3368 12.28 42.8035 13.176C43.2302 13.176 43.6568 13.1653 44.0835 13.144C44.5315 13.1227 44.9795 13.0907 45.4275 13.048C45.5342 13.1547 45.6195 13.2933 45.6835 13.464C45.7475 13.6133 45.7795 13.7733 45.7795 13.944C44.7342 14.328 43.4648 14.5413 41.9715 14.584C41.4382 15.608 40.9582 16.632 40.5315 17.656C40.1262 18.6587 39.7742 19.6293 39.4755 20.568C39.1982 21.5067 38.9742 22.392 38.8035 23.224C38.6542 24.056 38.5795 24.8027 38.5795 25.464C38.5795 26.4027 38.9315 26.9253 39.6355 27.032C40.2755 26.9467 40.8835 26.7867 41.4595 26.552C42.0355 26.3173 42.5475 26.0187 42.9955 25.656C43.1235 25.848 43.1982 26.008 43.2195 26.136C43.0915 26.328 42.8675 26.552 42.5475 26.808C42.2488 27.064 41.9182 27.3093 41.5555 27.544C41.1928 27.8 40.8408 28.0133 40.4995 28.184C40.1582 28.3547 39.9022 28.4507 39.7315 28.472C39.1982 28.4507 38.6648 28.3333 38.1315 28.12C37.5982 27.9067 37.1075 27.64 36.6595 27.32C36.2328 27 35.8808 26.648 35.6035 26.264C35.3262 25.8587 35.1875 25.464 35.1875 25.08C35.1875 24.568 35.2515 23.928 35.3795 23.16C35.5288 22.3707 35.7315 21.5173 35.9875 20.6C36.2435 19.6827 36.5422 18.7227 36.8835 17.72C37.2248 16.7173 37.5982 15.7253 38.0035 14.744H36.1795ZM56.9975 13.752C56.9122 15.0747 56.6775 16.216 56.2935 17.176C55.9095 18.1147 55.3548 18.9467 54.6295 19.672C53.9255 20.376 53.0615 21.016 52.0375 21.592C51.0135 22.168 49.8188 22.7227 48.4535 23.256C48.4535 23.384 48.4428 23.5227 48.4215 23.672C48.4215 23.8 48.4215 23.9387 48.4215 24.088C48.4215 24.3653 48.4428 24.6533 48.4855 24.952C48.5282 25.2507 48.6028 25.528 48.7095 25.784C48.8162 26.04 48.9655 26.2533 49.1575 26.424C49.3495 26.5733 49.5948 26.648 49.8935 26.648C50.4695 26.648 51.0348 26.52 51.5895 26.264C52.1442 26.008 52.6668 25.6987 53.1575 25.336C53.6695 24.952 54.1388 24.5467 54.5655 24.12C55.0135 23.672 55.4082 23.2667 55.7495 22.904C55.9628 23.096 56.1442 23.2773 56.2935 23.448C55.3335 24.728 54.2775 25.7947 53.1255 26.648C51.9948 27.48 50.9175 28.0133 49.8935 28.248C48.4215 28.0773 47.2695 27.544 46.4375 26.648C45.6268 25.7307 45.2215 24.632 45.2215 23.352C45.2215 22.4773 45.3388 21.592 45.5735 20.696C45.8295 19.7787 46.1708 18.904 46.5975 18.072C47.0455 17.2187 47.5575 16.4187 48.1335 15.672C48.7308 14.9253 49.3602 14.2747 50.0215 13.72C50.7042 13.1653 51.3975 12.728 52.1015 12.408C52.8268 12.088 53.5415 11.928 54.2455 11.928C55.2268 12.056 56.1442 12.664 56.9975 13.752ZM54.7895 14.808C54.2135 14.8933 53.6162 15.128 52.9975 15.512C52.3788 15.896 51.7922 16.408 51.2375 17.048C50.7042 17.688 50.2135 18.4347 49.7655 19.288C49.3175 20.1413 48.9655 21.0587 48.7095 22.04C50.4162 21.1867 51.8348 20.1413 52.9655 18.904C54.0962 17.6453 54.7042 16.28 54.7895 14.808ZM71.0775 13.656C71.7602 13.656 72.2935 13.848 72.6775 14.232C73.0828 14.616 73.2855 15.1493 73.2855 15.832C73.2855 16.0027 73.2748 16.184 73.2535 16.376C73.2322 16.5467 73.1895 16.696 73.1255 16.824C72.8482 16.7813 72.5388 16.7493 72.1975 16.728C71.8562 16.6853 71.4508 16.664 70.9815 16.664C70.0215 16.664 69.0615 16.7493 68.1015 16.92C67.1415 17.0907 66.2242 17.2293 65.3495 17.336C64.3895 19.5973 63.6002 21.72 62.9815 23.704C62.3628 25.688 61.8828 27.6507 61.5415 29.592C60.8162 29.4213 60.1762 29.112 59.6215 28.664C59.0668 28.216 58.5442 27.5867 58.0535 26.776C58.2028 26.4347 58.3842 26.0293 58.5975 25.56C58.8108 25.0693 59.0668 24.4613 59.3655 23.736C59.6642 22.9893 60.0162 22.0933 60.4215 21.048C60.8482 19.9813 61.3495 18.712 61.9255 17.24C61.0295 16.9413 60.4428 16.4187 60.1655 15.672C60.2722 15.5653 60.5708 15.448 61.0615 15.32C61.5522 15.1707 62.1495 15.0107 62.8535 14.84C63.1735 14.008 63.4508 13.272 63.6855 12.632C63.9202 11.9707 64.1335 11.352 64.3255 10.776C64.5175 10.1787 64.6882 9.60267 64.8375 9.048C65.0082 8.472 65.1575 7.864 65.2855 7.224H65.1255C64.3148 7.224 63.6535 7.032 63.1415 6.648C62.6508 6.264 62.4055 5.76267 62.4055 5.144C62.4055 4.97333 62.4268 4.77067 62.4695 4.536C62.5335 4.30133 62.6082 4.09867 62.6935 3.928C63.0988 3.992 63.4935 4.03467 63.8775 4.056C64.2828 4.07733 64.8055 4.088 65.4455 4.088C66.7895 4.088 68.0482 4.056 69.2215 3.992C70.3948 3.90667 71.4508 3.82133 72.3895 3.736C73.3495 3.65067 74.1708 3.576 74.8535 3.512C75.5362 3.42667 76.0588 3.384 76.4215 3.384C76.9122 3.384 77.3495 3.64 77.7335 4.152C78.1175 4.664 78.4162 5.38933 78.6295 6.328C77.9468 6.264 77.3922 6.22133 76.9655 6.2C76.5602 6.17867 76.1975 6.168 75.8775 6.168C74.7895 6.168 73.7868 6.22133 72.8695 6.328C71.9735 6.41333 71.1202 6.52 70.3095 6.648C70.1815 6.84 70.0322 7.08533 69.8615 7.384C69.7122 7.68267 69.5095 8.10933 69.2535 8.664C68.9975 9.19733 68.6668 9.90133 68.2615 10.776C67.8775 11.6507 67.3868 12.76 66.7895 14.104C67.6215 13.976 68.4108 13.8693 69.1575 13.784C69.9255 13.6987 70.5655 13.656 71.0775 13.656ZM74.9173 24.856C74.9173 24.664 74.9279 24.4293 74.9493 24.152C74.9919 23.8533 75.0559 23.4693 75.1413 23C75.2266 22.5093 75.3333 21.9227 75.4613 21.24C75.6106 20.5573 75.7919 19.736 76.0052 18.776C76.0479 18.5627 76.1439 18.2213 76.2933 17.752C76.4426 17.2827 76.6346 16.792 76.8693 16.28C77.1253 15.7467 77.4239 15.2347 77.7653 14.744C78.1279 14.2533 78.5546 13.8907 79.0453 13.656C79.4079 13.7413 79.8879 13.9653 80.4853 14.328C81.0826 14.6693 81.5946 15.1493 82.0213 15.768C81.5306 16.3227 81.1146 16.8773 80.7733 17.432C80.4533 17.9867 80.1546 18.5627 79.8773 19.16C79.6213 19.7573 79.3759 20.376 79.1413 21.016C78.9279 21.656 78.6826 22.328 78.4053 23.032C78.1706 23.6293 77.9573 24.248 77.7653 24.888C77.5733 25.5067 77.4666 26.0507 77.4453 26.52C77.4453 26.904 77.4346 27.1707 77.4133 27.32C77.4133 27.4907 77.3599 27.576 77.2533 27.576C77.1679 27.576 76.9973 27.5227 76.7413 27.416C76.4853 27.3093 76.2186 27.1493 75.9413 26.936C75.6853 26.7013 75.4506 26.4133 75.2373 26.072C75.0239 25.7307 74.9173 25.3253 74.9173 24.856ZM81.0293 10.968C81.0293 10.84 81.0613 10.648 81.1253 10.392C81.0186 10.2853 80.9226 10.1253 80.8373 9.912C80.7733 9.69867 80.7413 9.50667 80.7413 9.336C80.7413 9.144 80.7626 8.888 80.8053 8.568C80.8693 8.22667 80.9439 7.864 81.0293 7.48C81.1146 7.096 81.2213 6.70133 81.3493 6.296C81.4773 5.86933 81.6053 5.48533 81.7333 5.144C81.9893 5.144 82.2986 5.21867 82.6613 5.368C83.0453 5.496 83.4293 5.67733 83.8133 5.912C84.1973 6.12533 84.5493 6.37067 84.8693 6.648C85.1893 6.904 85.4346 7.14933 85.6053 7.384C85.3706 7.61867 85.0613 7.94933 84.6773 8.376C84.2933 8.78133 83.9199 9.21867 83.5573 9.688C83.1946 10.136 82.8639 10.5627 82.5653 10.968C82.2666 11.3733 82.0746 11.6613 81.9893 11.832C81.7333 11.7893 81.5093 11.6827 81.3173 11.512C81.1253 11.32 81.0293 11.1387 81.0293 10.968ZM87.6318 11.48C88.1864 11.6507 88.7091 12.0347 89.1998 12.632C89.6904 13.208 90.0531 13.848 90.2878 14.552C90.0531 15.128 89.6904 15.8213 89.1998 16.632C88.7091 17.4427 88.2184 18.2747 87.7278 19.128C87.2371 19.96 86.7891 20.76 86.3838 21.528C85.9998 22.2747 85.7758 22.8933 85.7118 23.384C86.0531 23.0213 86.4264 22.6053 86.8318 22.136C87.2584 21.6453 87.6638 21.1653 88.0478 20.696C88.4531 20.2053 88.8264 19.768 89.1678 19.384C89.5091 18.9787 89.7758 18.68 89.9678 18.488C90.3731 18.0613 90.8531 17.5707 91.4078 17.016C91.9624 16.44 92.5384 15.9067 93.1358 15.416C93.7544 14.904 94.3731 14.4773 94.9918 14.136C95.6104 13.7733 96.1758 13.592 96.6878 13.592C97.2424 13.592 97.7011 13.784 98.0638 14.168C98.4478 14.5307 98.7464 14.9147 98.9598 15.32C98.9598 15.3627 98.8744 15.4267 98.7038 15.512C98.5544 15.576 98.3304 15.7787 98.0318 16.12C97.7331 16.504 97.3918 17.0373 97.0078 17.72C96.6451 18.3813 96.2824 19.1067 95.9198 19.896C95.5784 20.664 95.2904 21.4533 95.0558 22.264C94.8211 23.0747 94.7038 23.8107 94.7038 24.472C94.7038 25.0053 94.7678 25.3467 94.8958 25.496C95.0451 25.6453 95.2478 25.72 95.5037 25.72C95.7384 25.72 95.9838 25.6667 96.2397 25.56C96.4958 25.4533 96.6984 25.4 96.8478 25.4C96.9331 25.4427 96.9971 25.5387 97.0398 25.688C97.1038 25.816 97.1358 25.9333 97.1358 26.04C96.9651 26.1893 96.7624 26.3387 96.5278 26.488C96.2931 26.6373 96.0478 26.776 95.7917 26.904C95.5358 27.032 95.2798 27.1387 95.0238 27.224C94.7891 27.3093 94.5758 27.352 94.3838 27.352C93.7651 27.352 93.2531 27.256 92.8478 27.064C92.4638 26.8933 92.1544 26.6587 91.9198 26.36C91.7064 26.0613 91.5571 25.7093 91.4718 25.304C91.3864 24.8773 91.3438 24.4293 91.3438 23.96C91.3438 23.704 91.3651 23.416 91.4078 23.096C91.4504 22.776 91.5358 22.4027 91.6638 21.976C91.7918 21.528 91.9731 21.0053 92.2078 20.408C92.4424 19.7893 92.7411 19.0533 93.1038 18.2C93.0611 18.2 92.7731 18.3493 92.2398 18.648C91.7064 18.9467 91.1304 19.4053 90.5118 20.024C89.5091 20.984 88.6024 21.9333 87.7917 22.872C87.0024 23.8107 86.1918 24.856 85.3598 26.008C84.8904 26.6693 84.4744 27.224 84.1118 27.672C83.7704 28.1413 83.4718 28.4507 83.2158 28.6C82.7678 28.344 82.4371 27.9813 82.2238 27.512C82.0104 27.064 81.8504 26.5947 81.7438 26.104C81.7438 25.6987 81.7971 25.1867 81.9038 24.568C82.0318 23.9493 82.1918 23.2667 82.3838 22.52C82.5971 21.752 82.8531 20.952 83.1518 20.12C83.4504 19.288 83.7811 18.456 84.1438 17.624C84.9544 15.7467 85.6904 14.2747 86.3518 13.208C87.0344 12.1413 87.4611 11.5653 87.6318 11.48ZM99.761 24.856C99.761 24.664 99.7717 24.4293 99.793 24.152C99.8357 23.8533 99.8997 23.4693 99.985 23C100.07 22.5093 100.177 21.9227 100.305 21.24C100.454 20.5573 100.636 19.736 100.849 18.776C100.892 18.5627 100.988 18.2213 101.137 17.752C101.286 17.2827 101.478 16.792 101.713 16.28C101.969 15.7467 102.268 15.2347 102.609 14.744C102.972 14.2533 103.398 13.8907 103.889 13.656C104.252 13.7413 104.732 13.9653 105.329 14.328C105.926 14.6693 106.438 15.1493 106.865 15.768C106.374 16.3227 105.958 16.8773 105.617 17.432C105.297 17.9867 104.998 18.5627 104.721 19.16C104.465 19.7573 104.22 20.376 103.985 21.016C103.772 21.656 103.526 22.328 103.249 23.032C103.014 23.6293 102.801 24.248 102.609 24.888C102.417 25.5067 102.31 26.0507 102.289 26.52C102.289 26.904 102.278 27.1707 102.257 27.32C102.257 27.4907 102.204 27.576 102.097 27.576C102.012 27.576 101.841 27.5227 101.585 27.416C101.329 27.3093 101.062 27.1493 100.785 26.936C100.529 26.7013 100.294 26.4133 100.081 26.072C99.8677 25.7307 99.761 25.3253 99.761 24.856ZM105.873 10.968C105.873 10.84 105.905 10.648 105.969 10.392C105.862 10.2853 105.766 10.1253 105.681 9.912C105.617 9.69867 105.585 9.50667 105.585 9.336C105.585 9.144 105.606 8.888 105.649 8.568C105.713 8.22667 105.788 7.864 105.873 7.48C105.958 7.096 106.065 6.70133 106.193 6.296C106.321 5.86933 106.449 5.48533 106.577 5.144C106.833 5.144 107.142 5.21867 107.505 5.368C107.889 5.496 108.273 5.67733 108.657 5.912C109.041 6.12533 109.393 6.37067 109.713 6.648C110.033 6.904 110.278 7.14933 110.449 7.384C110.214 7.61867 109.905 7.94933 109.521 8.376C109.137 8.78133 108.764 9.21867 108.401 9.688C108.038 10.136 107.708 10.5627 107.409 10.968C107.11 11.3733 106.918 11.6613 106.833 11.832C106.577 11.7893 106.353 11.6827 106.161 11.512C105.969 11.32 105.873 11.1387 105.873 10.968ZM118.332 14.264C118.31 14.6693 118.236 15.096 118.108 15.544C118.001 15.9707 117.862 16.3653 117.692 16.728C117.521 17.0693 117.34 17.3573 117.148 17.592C116.956 17.8267 116.774 17.944 116.604 17.944C116.369 17.9227 116.23 17.7627 116.188 17.464C116.188 17.4 116.209 17.304 116.252 17.176C116.316 17.0267 116.38 16.8667 116.444 16.696C116.508 16.5253 116.561 16.3547 116.604 16.184C116.668 16.0133 116.7 15.864 116.7 15.736C116.7 15.4373 116.625 15.192 116.476 15C116.348 14.7867 116.166 14.68 115.932 14.68C115.078 14.68 114.428 15.2133 113.98 16.28C113.532 17.3467 113.308 18.9147 113.308 20.984C113.308 21.1973 113.318 21.3253 113.34 21.368C113.788 21.3467 114.182 21.336 114.524 21.336C114.886 21.3147 115.238 21.304 115.58 21.304C115.601 21.3467 115.612 21.432 115.612 21.56C115.612 21.752 115.569 21.8907 115.484 21.976C114.993 22.0827 114.598 22.1787 114.3 22.264C114.022 22.328 113.809 22.392 113.66 22.456C113.51 22.52 113.414 22.5947 113.372 22.68C113.35 22.744 113.34 22.84 113.34 22.968C113.34 23.1387 113.34 23.3093 113.34 23.48C113.361 23.6507 113.372 23.864 113.372 24.12C113.372 25.912 112.881 27.352 111.9 28.44C110.94 29.528 109.596 30.1573 107.868 30.328C107.569 30.3067 107.26 30.2213 106.94 30.072C106.62 29.9227 106.31 29.7307 106.012 29.496C105.734 29.2613 105.489 28.9947 105.276 28.696C105.062 28.4187 104.913 28.1307 104.828 27.832C104.828 27.0213 104.998 26.2533 105.34 25.528C105.681 24.7813 106.14 24.1307 106.716 23.576C107.313 23 108.006 22.5413 108.796 22.2C109.606 21.8373 110.481 21.624 111.42 21.56C111.42 21.0267 111.366 20.504 111.26 19.992C111.153 19.48 111.036 18.9893 110.908 18.52C110.801 18.0293 110.694 17.56 110.588 17.112C110.481 16.6427 110.428 16.184 110.428 15.736C110.428 15.16 110.545 14.5947 110.78 14.04C111.014 13.464 111.324 12.9413 111.708 12.472C112.092 11.9813 112.54 11.5653 113.052 11.224C113.564 10.8827 114.097 10.648 114.652 10.52C114.886 10.584 115.196 10.776 115.58 11.096C115.985 11.3947 116.38 11.736 116.764 12.12C117.148 12.504 117.489 12.8987 117.788 13.304C118.086 13.688 118.268 14.008 118.332 14.264ZM107.772 28.856C108.284 28.6427 108.764 28.3333 109.212 27.928C109.681 27.5227 110.086 27.064 110.428 26.552C110.769 26.04 111.036 25.496 111.228 24.92C111.441 24.344 111.548 23.7787 111.548 23.224C111.121 23.288 110.652 23.4907 110.14 23.832C109.628 24.152 109.148 24.5467 108.7 25.016C108.252 25.464 107.878 25.9333 107.58 26.424C107.281 26.9147 107.132 27.3413 107.132 27.704C107.132 28.1733 107.345 28.5573 107.772 28.856ZM118.322 26.456C118.322 25.7093 118.397 24.8347 118.546 23.832C118.695 22.808 118.909 21.72 119.186 20.568C119.485 19.416 119.826 18.2107 120.21 16.952C120.615 15.6933 121.063 14.4347 121.554 13.176C121.981 12.0453 122.471 10.904 123.026 9.752C123.602 8.6 124.221 7.46933 124.882 6.36C125.543 5.25067 126.226 4.19467 126.93 3.192C127.655 2.18933 128.381 1.272 129.106 0.439999C129.447 0.439999 129.81 0.482665 130.194 0.567999C130.599 0.653332 130.983 0.770665 131.346 0.919998C131.73 1.048 132.071 1.208 132.37 1.4C132.69 1.592 132.946 1.784 133.138 1.976C131.538 3.61867 130.098 5.28267 128.818 6.968C127.538 8.632 126.525 10.2 125.778 11.672C125.373 12.4827 124.999 13.24 124.658 13.944C124.338 14.648 124.039 15.352 123.762 16.056C123.485 16.7387 123.229 17.432 122.994 18.136C122.781 18.8187 122.578 19.544 122.386 20.312C126.482 15.0853 129.522 12.472 131.506 12.472C132.061 12.472 132.658 12.6533 133.298 13.016C133.938 13.3787 134.503 13.8693 134.994 14.488C134.333 15.2133 133.65 16.088 132.946 17.112C132.242 18.136 131.591 19.1707 130.994 20.216C130.418 21.24 129.938 22.2 129.554 23.096C129.191 23.9707 129.01 24.6213 129.01 25.048C129.01 25.2613 129.042 25.4107 129.106 25.496C129.17 25.56 129.309 25.592 129.522 25.592C129.842 25.592 130.098 25.5493 130.29 25.464C130.482 25.3787 130.599 25.336 130.642 25.336C130.749 25.5067 130.813 25.624 130.834 25.688C130.855 25.752 130.866 25.8053 130.866 25.848C130.866 25.9333 130.738 26.0613 130.482 26.232C130.226 26.3813 129.917 26.5413 129.554 26.712C129.213 26.8613 128.871 27 128.53 27.128C128.189 27.256 127.933 27.32 127.762 27.32C127.549 27.32 127.335 27.256 127.122 27.128C126.909 27.0213 126.717 26.872 126.546 26.68C126.397 26.488 126.269 26.2747 126.162 26.04C126.077 25.8053 126.034 25.56 126.034 25.304C126.034 24.984 126.119 24.5147 126.29 23.896C126.482 23.256 126.738 22.52 127.058 21.688C127.378 20.8347 127.762 19.9067 128.21 18.904C128.658 17.9013 129.138 16.8773 129.65 15.832C129.65 15.7467 129.607 15.704 129.522 15.704C129.458 15.704 129.287 15.7893 129.01 15.96C128.754 16.1307 128.509 16.3013 128.274 16.472C127.506 17.048 126.727 17.7627 125.938 18.616C125.17 19.448 124.413 20.3653 123.666 21.368C122.941 22.3707 122.247 23.4373 121.586 24.568C120.946 25.6773 120.391 26.7973 119.922 27.928C119.858 28.0773 119.762 28.216 119.634 28.344C119.506 28.472 119.399 28.536 119.314 28.536C119.25 28.536 119.154 28.4613 119.026 28.312C118.919 28.1627 118.813 27.9707 118.706 27.736C118.621 27.5227 118.535 27.2987 118.45 27.064C118.365 26.8293 118.322 26.6267 118.322 26.456Z" fill="black"/>
</svg>
