<svg width="27" height="27" viewBox="0 0 27 27" fill="none" xmlns="http://www.w3.org/2000/svg">
<path d="M13.5 0.09375C10.8485 0.09375 8.25654 0.880013 6.05189 2.35311C3.84725 3.82621 2.12893 5.91998 1.11425 8.36965C0.0995587 10.8193 -0.16593 13.5149 0.351353 16.1154C0.868637 18.716 2.14546 21.1048 4.02036 22.9797C5.89525 24.8545 8.28402 26.1314 10.8846 26.6487C13.4851 27.1659 16.1807 26.9004 18.6304 25.8858C21.08 24.8711 23.1738 23.1528 24.6469 20.9481C26.12 18.7435 26.9063 16.1515 26.9063 13.5C26.9021 9.9457 25.4884 6.53816 22.9751 4.02489C20.4618 1.51162 17.0543 0.097858 13.5 0.09375ZM18.197 14.358L12.0095 18.483C11.8543 18.5867 11.6737 18.6463 11.4872 18.6554C11.3007 18.6645 11.1153 18.6228 10.9506 18.5347C10.786 18.4466 10.6484 18.3154 10.5525 18.1552C10.4567 17.995 10.4061 17.8117 10.4063 17.625V9.375C10.4061 9.18828 10.4567 9.00502 10.5525 8.8448C10.6484 8.68458 10.786 8.55341 10.9506 8.4653C11.1153 8.3772 11.3007 8.33547 11.4872 8.34457C11.6737 8.35367 11.8543 8.41326 12.0095 8.51697L18.197 12.642C18.3383 12.7361 18.4541 12.8637 18.5342 13.0134C18.6143 13.1631 18.6563 13.3302 18.6563 13.5C18.6563 13.6698 18.6143 13.8369 18.5342 13.9866C18.4541 14.1363 18.3383 14.2639 18.197 14.358Z" fill="white"/>
</svg>
