<svg width="34" height="37" viewBox="0 0 34 37" fill="none" xmlns="http://www.w3.org/2000/svg">
<path d="M13.853 3.12406H19.9668C20.237 3.12406 20.4962 3.00535 20.6873 2.79405C20.8784 2.58275 20.9858 2.29616 20.9858 1.99733C20.9858 1.69851 20.8784 1.41192 20.6873 1.20062C20.4962 0.989314 20.237 0.870605 19.9668 0.870605H13.853C13.5827 0.870605 13.3235 0.989314 13.1324 1.20062C12.9413 1.41192 12.834 1.69851 12.834 1.99733C12.834 2.29616 12.9413 2.58275 13.1324 2.79405C13.3235 3.00535 13.5827 3.12406 13.853 3.12406Z" fill="black"/>
<path d="M16.9103 5.37769C14.4919 5.37769 12.1278 6.17066 10.117 7.65634C8.10614 9.14202 6.53888 11.2537 5.6134 13.7243C4.68792 16.1949 4.44577 18.9134 4.91757 21.5362C5.38938 24.159 6.55396 26.5681 8.26403 28.459C9.9741 30.3499 12.1529 31.6377 14.5248 32.1594C16.8967 32.6811 19.3553 32.4133 21.5896 31.39C23.824 30.3666 25.7337 28.6336 27.0772 26.4101C28.4208 24.1867 29.138 21.5726 29.138 18.8984C29.1343 15.3137 27.8449 11.877 25.5525 9.34229C23.2602 6.80754 20.1522 5.38174 16.9103 5.37769ZM22.6745 14.1181L17.6309 19.6951C17.5363 19.7998 17.4239 19.8828 17.3003 19.9394C17.1767 19.996 17.0442 20.0252 16.9103 20.0252C16.7765 20.0252 16.644 19.996 16.5204 19.9394C16.3968 19.8828 16.2844 19.7998 16.1898 19.6952C16.0952 19.5906 16.0201 19.4664 15.9689 19.3297C15.9177 19.193 15.8913 19.0464 15.8913 18.8985C15.8913 18.7505 15.9177 18.604 15.9689 18.4673C16.0201 18.3306 16.0951 18.2064 16.1897 18.1017L21.2334 12.5247C21.328 12.4201 21.4404 12.3371 21.564 12.2804C21.6876 12.2238 21.8201 12.1947 21.9539 12.1946C22.0877 12.1946 22.2203 12.2238 22.3439 12.2804C22.4675 12.337 22.5798 12.42 22.6745 12.5246C22.7691 12.6293 22.8442 12.7535 22.8954 12.8902C22.9466 13.0269 22.9729 13.1734 22.9729 13.3214C22.9729 13.4693 22.9466 13.6158 22.8954 13.7525C22.8442 13.8892 22.7691 14.0135 22.6745 14.1181H22.6745Z" fill="black"/>
</svg>
